<svg xmlns="http://www.w3.org/2000/svg" width="32" height="32" viewBox="0 0 32 32"><g transform="translate(-174 195.335)"><path fill="#1a1a1a" fill-rule="evenodd" d="m 193.00349,-187.82908 c -0.0817,6.79306 0.5438,12.49725 2.02517,17.95805 l -10.01003,0 c 1.48137,-5.4608 2.07514,-11.16499 1.99339,-17.95805 z"/><path fill="#0f1211" fill-rule="evenodd" d="m 193.00349,-187.82908 c -0.0817,6.79306 0.5438,12.49725 2.02517,17.95805 l -10.01003,0 c 6.2647,-1.67862 7.98486,-2.2589 7.98486,-17.95805 z"/><path fill="none" stroke="#000" d="m 193.00349,-187.82908 c -0.0817,6.79306 0.5438,12.49725 2.02517,17.95805 l -10.01003,0 c 1.48137,-5.4608 2.07514,-11.16499 1.99339,-17.95805 z"/><path fill="#1a1a1a" fill-rule="evenodd" d="m 187.17935,-187.96319 -1.05195,-2.35381 3.99982,-1.83145 3.73018,1.83145 -1.06927,2.41737"/><path fill="#4d4d4d" fill-rule="evenodd" d="m 187.45742,-187.96319 -1.05195,-2.35381 3.87271,-1.47393 c -1.62723,1.62723 -2.26059,1.73715 -2.82076,3.82774 z" opacity=".42"/><path fill="#0a0a0a" stroke="#000" stroke-linecap="round" d="m 182.62546,-166.83183 c -0.90151,0 -1.62546,0.61482 -1.62546,1.3789 l 0,0.23633 c 0,0.009 0.002,0.0168 0.002,0.0254 l -0.002,0 0,1.35352 1.62546,0 14.74908,0 1.62546,0 0,-1.35352 -0.002,0 c 1.8e-4,-0.009 0.002,-0.0167 0.002,-0.0254 l 0,-0.23633 c 0,-0.76408 -0.72395,-1.3789 -1.62546,-1.3789 l -14.74908,0 z" color="#000" overflow="visible" style="isolation:auto;mix-blend-mode:normal"/><rect width="5" height="1" x="187.5" y="-185.317" fill="#0f1211" rx="0" ry="0"/><path fill="none" stroke="#4d4d4d" d="m 186.12349,-169.87103 c 1.48137,-5.4608 1.94802,-11.16499 1.86627,-17.95805" opacity=".421"/><rect width="10" height="2" x="185" y="-187.832" fill="#333" stroke="#000" rx="1.13" ry="1"/><path fill="none" stroke="#000" d="M190.08989-192.317l0-3.01483M188.58987-193.80853l3.00002 0"/><path fill="#2f2f2f" fill-rule="evenodd" d="m 184.10287,-166.34455 2,0 c -0.32973,0.36518 -0.44623,0.71757 -0.4597,1.05902 -0.0132,0.33444 0.0138,0.50104 0.0138,0.94098 l -2.07304,0 c 0,-0.57889 -0.0142,-0.6805 -0.005,-1.02076 0.009,-0.32641 0.18488,-0.65282 0.52403,-0.97924 z"/><rect width="13.832" height="3" x="183.118" y="-169.832" fill="#333" stroke="#000" rx="1.5" ry="1.5"/><path fill="#fff" fill-rule="evenodd" d="M185.08803-169.33183l2 0c-.6419.71093-.58638 1.37377 0 2l-2 0c-.70558-.66667-.69269-1.33334 0-2zM187.51235-187.33183l1 0c-.32096.35547-.2932.68689 0 1l-1 0c-.3528-.33333-.34635-.66667 0-1z" opacity=".11"/><path fill="none" stroke="#000" d="m 187.17935,-187.96319 -1.05195,-2.35381 3.99982,-1.83145 3.73018,1.83145 -1.06927,2.41737"/><path fill="#fff" fill-rule="evenodd" d="m 187.80504,-169.33183 0.71292,0 c -0.64191,0.71093 -0.58638,1.37377 0,2 l -0.71292,0 c -0.70559,-0.66667 -0.6927,-1.33334 0,-2 z" opacity=".11"/><path fill="#2f2f2f" fill-rule="evenodd" d="m 186.85181,-166.34455 0.77648,0 c -0.32972,0.36518 -0.44622,0.71757 -0.4597,1.05902 -0.0132,0.33444 0.0138,0.50104 0.0138,0.94098 l -0.84951,0 c 0,-0.57889 -0.0142,-0.6805 -0.005,-1.02076 0.009,-0.32641 0.18487,-0.65282 0.52402,-0.97924 z"/><path fill="#0f1211" fill-rule="evenodd" d="m 195.17596,-169.33183 -1.10114,0 c 0.64191,0.71093 0.58639,1.37377 0,2 l 1.10114,0 c 0.70558,-0.66667 0.69269,-1.33334 0,-2 z"/><path fill="#2f2f2f" fill-rule="evenodd" d="m 196.78916,-166.34455 -1.3708,0 c 0.32972,0.36518 0.44623,0.71757 0.4597,1.05902 0.0132,0.33444 -0.0138,0.50104 -0.0138,0.94098 l 1.44383,0 c 0,-0.57889 0.0142,-0.6805 0.005,-1.02076 -0.009,-0.32641 -0.18487,-0.65282 -0.52403,-0.97924 z"/><path fill="#fff" fill-rule="evenodd" d="m 187.28783,-187.6278 c -0.146,0.14601 -0.61226,0.30613 -0.61226,0.30613 0,0 0.46865,0.16253 0.61226,0.30613 0.1436,0.14361 0.30613,0.60628 0.30613,0.60628 0,0 0.16252,-0.46267 0.30613,-0.60628 0.1436,-0.1436 0.61226,-0.30613 0.61226,-0.30613 0,0 -0.46626,-0.16012 -0.61226,-0.30613 -0.146,-0.146 -0.30613,-0.6266 -0.30613,-0.6266 0,0 -0.16013,0.4806 -0.30613,0.6266 z" color="#000" font-family="sans-serif" font-weight="400" overflow="visible" style="line-height:normal;text-indent:0;text-align:start;text-decoration-line:none;text-decoration-style:solid;text-decoration-color:#000;text-transform:none;block-progression:tb;isolation:auto;mix-blend-mode:normal"/><path fill="#0f1211" fill-rule="evenodd" d="m 193.01218,-187.33183 -1,0 c 0.32096,0.35547 0.2932,0.68689 0,1 l 1,0 c 0.3528,-0.33333 0.34635,-0.66667 0,-1 z"/></g></svg>