<svg xmlns="http://www.w3.org/2000/svg" width="32" height="32" viewBox="0 0 32 32"><g transform="translate(-278.36 195.338)"><path fill="#0f1211" d="m 298.36897,-192.3047 c 4.45627,3.93348 6.94131,12.41528 5.5644,19.46697 l -3.04269,0.008"/><path fill="#1a1a1a" fill-rule="evenodd" d="m 295.77638,-192.75535 c -0.88481,1.22885 -2.34352,1.95131 -3.89439,1.93071 -0.58157,1.51345 -2.09637,2.65386 -3.98769,2.99889 -1.42044,0.107 -2.59634,1.0345 -2.92351,2.3011 -0.32718,1.2666 0.26906,2.58318 1.476,3.25926 1.20695,0.67607 2.74909,0.5573 3.81765,-0.29401 l -0.35878,-0.35749 c 2.16537,1.19209 5.16217,0.89223 6.85809,-0.68621 l -0.72162,0.58997 c -0.98474,1.2747 -1.04821,2.31035 -4.65699,3.21914 -3.60877,0.9088 -4.97202,4.81836 -4.2444,7.98616 l 1.7573,-0.005 3.6e-4,2.98326 9.00212,-3e-5 -6.9e-4,-3.00649 2.16126,-0.003 c 2.82958,-6.19743 2.33901,-13.67719 -1.16359,-18.98452"/><path fill="none" stroke="#000" stroke-linecap="round" stroke-linejoin="round" d="M288.41223-184.31971a15.76725 11.001381 0 0 1-2.50633 1.48704M293.26125-187.82963l1 0"/><path fill="#0f1211" fill-rule="evenodd" style="line-height:normal;text-indent:0;text-align:start;text-decoration-line:none;text-decoration-style:solid;text-decoration-color:#000;text-transform:none;block-progression:tb;isolation:auto;mix-blend-mode:normal" d="m 289.40039,-171.33789 0,1 8,0 0,-1 -8,0 z" color="#000" font-family="sans-serif" font-weight="400" overflow="visible"/><path fill="#0f1211" fill-rule="evenodd" d="m 294.33554,-171.81283 3.56429,-0.0233 2.16126,-0.003 c 2.82958,-6.19743 2.33901,-13.67719 -1.16359,-18.98452 3.88154,14.48612 -4.56196,19.01098 -4.56196,19.01098 z"/><path fill="none" stroke="#000" stroke-linecap="round" stroke-linejoin="round" d="m 298.36897,-192.3047 c 4.45627,3.93348 6.94131,12.41528 5.5644,19.46697 l -3.04269,0.008"/><path fill="#4d4d4d" fill-rule="evenodd" d="M297.22779-183.6031l-1.18566.58997c-.98474 1.2747-1.04821 2.31035-4.65699 3.21914-3.60877.9088-4.97202 4.81836-4.2444 7.98616l3.28855-.005c.97017-7.52486 5.97017-5.52486 6.7985-11.79027zM295.77638-192.75535c-.88481 1.22885-2.34352 1.95131-3.89439 1.93071-.58157 1.51345-2.09637 2.65386-3.98769 2.99889-1.42044.107-2.59634 1.0345-2.92351 2.3011-.14807.57323-.0133 1.61764.43015 2.19421.49369-4.00725 10.99852-4.45355 10.37544-9.42491z" opacity=".421"/><path fill="none" stroke="#000" stroke-linecap="round" stroke-linejoin="round" d="m 295.77638,-192.75535 c -0.88481,1.22885 -2.34352,1.95131 -3.89439,1.93071 -0.58157,1.51345 -2.09637,2.65386 -3.98769,2.99889 -1.42044,0.107 -2.59634,1.0345 -2.92351,2.3011 -0.32718,1.2666 0.26906,2.58318 1.476,3.25926 1.20695,0.67607 2.74909,0.5573 3.81765,-0.29401 l -0.35878,-0.35749 c 2.16537,1.19209 5.16217,0.89223 6.85809,-0.68621 l -0.72162,0.58997 c -0.98474,1.2747 -1.04821,2.31035 -4.65699,3.21914 -3.60877,0.9088 -4.97202,4.791 -4.2444,7.9588 l 1.7573,-0.005 3.6e-4,3.01062 9.00212,-3e-5 -6.9e-4,-3.00649 2.16126,-0.003 c 2.82958,-6.19743 2.33901,-13.67719 -1.16359,-18.98452 z"/><path fill="none" stroke="#12141a" d="m 288.39946,-171.83769 10,0"/><path fill="#1a1a1a" d="m 298.74726,-188.83308 c 0.6869,-2.6423 -0.98307,-5.31983 -3.82056,-6.00464 0.30102,0.35482 0.63625,1.04282 0.8247,1.84451 0.18845,0.80169 0.20526,1.61139 0.0448,2.1586"/><path fill="#0f1211" d="m 298.74726,-188.55183 c 0.6869,-2.6423 -0.98307,-5.60108 -3.82056,-6.28589 0.30102,0.35482 2.98,2.05845 3.35595,5.95389"/><path fill="#2f2f2f" d="m 296.03387,-190.41223 c 1.17151,-0.43418 0.99691,-2.50785 -0.52639,-4.03479 0.19271,0.42353 0.48206,1.14971 0.2553,4.10487 z" opacity=".421"/><path fill="none" stroke="#000" stroke-linecap="round" stroke-linejoin="round" d="m 298.74726,-188.83308 c 0.6869,-2.6423 -0.98307,-5.31983 -3.82056,-6.00464 0.30102,0.35482 0.63625,1.04282 0.8247,1.84451 0.18845,0.80169 0.20526,1.61139 0.0448,2.1586"/><path fill="#0a0a0a" stroke="#000" stroke-linecap="round" style="isolation:auto;mix-blend-mode:normal" d="m 286.02492,-166.83183 c -0.90151,0 -1.62546,0.61482 -1.62546,1.3789 l 0,0.23633 c 0,0.009 0.002,0.0168 0.002,0.0254 l -0.002,0 0,1.35352 1.62546,0 14.74908,0 1.62546,0 0,-1.35352 -0.002,0 c 1.8e-4,-0.009 0.002,-0.0167 0.002,-0.0254 l 0,-0.23633 c 0,-0.76408 -0.72395,-1.3789 -1.62546,-1.3789 l -14.74908,0 z" color="#000" overflow="visible"/><path fill="#2f2f2f" fill-rule="evenodd" d="m 287.50233,-166.34455 2,0 c -0.32973,0.36518 -0.44623,0.71757 -0.4597,1.05902 -0.0132,0.33444 0.0138,0.50104 0.0138,0.94098 l -2.07303,0 c 0,-0.57889 -0.0142,-0.6805 -0.005,-1.02076 0.009,-0.32641 0.18487,-0.65282 0.52402,-0.97924 z"/><rect width="13.832" height="3" x="286.517" y="-169.832" fill="#333" stroke="#000" rx="1.5" ry="1.5"/><path fill="#fff" fill-rule="evenodd" d="M288.4875-169.33183l2 0c-.64191.71093-.58639 1.37377 0 2l-2 0c-.70559-.66667-.6927-1.33334 0-2zM291.2045-169.33183l.71292 0c-.64191.71093-.58638 1.37377 0 2l-.71292 0c-.70559-.66667-.6927-1.33334 0-2z" opacity=".11"/><path fill="#2f2f2f" fill-rule="evenodd" d="m 290.25127,-166.34455 0.77648,0 c -0.32972,0.36518 -0.44622,0.71757 -0.4597,1.05902 -0.0132,0.33444 0.0138,0.50104 0.0138,0.94098 l -0.84951,0 c 0,-0.57889 -0.0142,-0.6805 -0.005,-1.02076 0.009,-0.32641 0.18487,-0.65282 0.52402,-0.97924 z"/><path fill="#0f1211" fill-rule="evenodd" d="m 298.57542,-169.33183 -1.10114,0 c 0.64191,0.71093 0.58639,1.37377 0,2 l 1.10114,0 c 0.70558,-0.66667 0.69269,-1.33334 0,-2 z"/><path fill="#2f2f2f" fill-rule="evenodd" d="m 300.18862,-166.34455 -1.3708,0 c 0.32972,0.36518 0.44623,0.71757 0.4597,1.05902 0.0132,0.33444 -0.0138,0.50104 -0.0138,0.94098 l 1.44383,0 c 0,-0.57889 0.0142,-0.6805 0.005,-1.02076 -0.009,-0.32641 -0.18487,-0.65282 -0.52403,-0.97924 z"/><path fill="#fff" fill-rule="evenodd" style="line-height:normal;text-indent:0;text-align:start;text-decoration-line:none;text-decoration-style:solid;text-decoration-color:#000;text-transform:none;block-progression:tb;isolation:auto;mix-blend-mode:normal" d="m 288.00079,-169.62781 c -0.146,0.14601 -0.61226,0.30613 -0.61226,0.30613 0,0 0.46865,0.16253 0.61226,0.30613 0.1436,0.14361 0.30613,0.60628 0.30613,0.60628 0,0 0.16252,-0.46267 0.30613,-0.60628 0.1436,-0.1436 0.61226,-0.30613 0.61226,-0.30613 0,0 -0.46626,-0.16012 -0.61226,-0.30613 -0.146,-0.146 -0.30613,-0.6266 -0.30613,-0.6266 0,0 -0.16013,0.4806 -0.30613,0.6266 z" color="#000" font-family="sans-serif" font-weight="400" overflow="visible"/></g></svg>