<svg xmlns="http://www.w3.org/2000/svg" width="32" height="32" viewBox="0 0 32 32"><g transform="translate(-257.794 192.838)"><path fill="#1a1a1a" fill-rule="evenodd" d="m 275.90125,-182.8176 c -0.0578,4.88975 0.38453,8.99571 1.43205,12.92648 l -7.07834,0 c 1.04752,-3.93077 1.46739,-8.03673 1.40958,-12.92648 z"/><path fill="#0f1211" fill-rule="evenodd" d="m 275.69708,-182.26156 c -0.0564,4.68702 0.37521,8.62274 1.39731,12.39054 l -6.90663,0 c 4.32246,-1.15821 5.50932,-1.55858 5.50932,-12.39054 z"/><path fill="#0a0a0a" stroke="#000" stroke-linecap="round" style="isolation:auto;mix-blend-mode:normal" d="m 267.64868,-166.83183 c -0.75126,0 -1.35455,0.61482 -1.35455,1.37891 l 0,0.23632 c 0,0.009 0.002,0.0168 0.002,0.0254 l -0.002,0 0,1.35352 1.35455,0 12.2909,0 1.35455,0 0,-1.35352 -0.002,0 c 1.5e-4,-0.009 0.002,-0.0167 0.002,-0.0254 l 0,-0.23632 c 0,-0.76409 -0.60329,-1.37891 -1.35455,-1.37891 l -12.2909,0 z" color="#000" overflow="visible"/><rect width="5" height="1" x="271.294" y="-185.317" fill="#f49d3b" rx="0" ry="0"/><rect width="7" height="2" x="270.294" y="-184.817" fill="#333" stroke="#000" rx="1" ry="1"/><path fill="#2f2f2f" fill-rule="evenodd" d="m 268.32117,-166.34454 2,0 c -0.32972,0.36518 -0.44622,0.71756 -0.4597,1.05901 -0.0132,0.33444 0.0138,0.50105 0.0138,0.94099 l -2.07303,0 c 0,-0.5789 -0.0142,-0.68051 -0.005,-1.02076 0.009,-0.32642 0.18487,-0.65283 0.52403,-0.97924 z"/><rect width="11" height="3" x="268.294" y="-169.832" fill="#333" stroke="#000" rx="1.193" ry="1.5"/><path fill="#fff" fill-rule="evenodd" d="M270.3185-169.33183l2 0c-.64191.71094-.58639 1.37377 0 2l-2 0c-.70559-.66667-.6927-1.33333 0-2zM272.05631-184.317l1 0c-.32095.35547-.29319.68689 0 1l-1 0c-.35279-.33333-.34634-.66667 0-1zM273.0355-169.33183l.71292 0c-.64191.71094-.58638 1.37377 0 2l-.71292 0c-.70559-.66667-.6927-1.33333 0-2z" opacity=".11"/><path fill="#2f2f2f" fill-rule="evenodd" d="m 271.07011,-166.34454 0.77649,0 c -0.32973,0.36518 -0.44623,0.71756 -0.4597,1.05901 -0.0132,0.33444 0.0138,0.50105 0.0138,0.94099 l -0.84952,0 c 0,-0.5789 -0.0142,-0.68051 -0.005,-1.02076 0.009,-0.32642 0.18488,-0.65283 0.52403,-0.97924 z"/><path fill="#0f1211" fill-rule="evenodd" d="m 277.26976,-169.33183 -1.10113,0 c 0.64191,0.71094 0.58638,1.37377 0,2 l 1.10113,0 c 0.70559,-0.66667 0.6927,-1.33333 0,-2 z"/><path fill="#2f2f2f" fill-rule="evenodd" d="m 278.26709,-166.34454 -1.3708,0 c 0.32972,0.36518 0.44622,0.71756 0.4597,1.05901 0.0132,0.33444 -0.0138,0.50105 -0.0138,0.94099 l 1.44383,0 c 0,-0.5789 0.0142,-0.68051 0.005,-1.02076 -0.009,-0.32642 -0.18488,-0.65283 -0.52403,-0.97924 z"/><circle cx="273.794" cy="-187.338" r="2.5" fill="#1a1a1a"/><path fill="#4d4d4d" fill-rule="evenodd" d="m 272.54413,-185.33769 1,0 c -0.67589,-1.10157 -0.72317,-2.74743 0,-4 -1.01144,1.01144 -1.62561,2.91642 -1,4 z" opacity=".42"/><path fill="#0f1211" fill-rule="evenodd" style="line-height:normal;text-indent:0;text-align:start;text-decoration-line:none;text-decoration-style:solid;text-decoration-color:#000;text-transform:none;block-progression:tb;isolation:auto;mix-blend-mode:normal" d="m 271.82617,-182.31055 0,1 3.9668,0 0,-1 -3.9668,0 z" color="#000" font-family="sans-serif" font-weight="400" overflow="visible"/><path fill="none" stroke="#4d4d4d" d="m 271.25539,-169.89112 c 1.04752,-3.93077 1.46739,-8.03673 1.40958,-12.92648" opacity=".421"/><path fill="none" stroke="#000" d="m 275.90125,-182.8176 c -0.0578,4.88975 0.38453,8.99571 1.43205,12.92648 l -7.07834,0 c 1.04752,-3.93077 1.46739,-8.03673 1.40958,-12.92648 z"/><circle cx="273.794" cy="-187.338" r="2.5" fill="none" stroke="#000" stroke-linecap="round" stroke-linejoin="round"/><path fill="#0f1211" fill-rule="evenodd" d="m 275.54413,-184.317 -1,0 c 0.32096,0.35547 0.29319,0.68689 0,1 l 1,0 c 0.35279,-0.33333 0.34635,-0.66667 0,-1 z"/><path fill="#fff" fill-rule="evenodd" d="m 271.80694,-184.62652 c -0.146,0.14601 -0.61226,0.30613 -0.61226,0.30613 0,0 0.46865,0.16253 0.61226,0.30613 0.1436,0.14361 0.30613,0.60628 0.30613,0.60628 0,0 0.16252,-0.46267 0.30613,-0.60628 0.1436,-0.1436 0.61226,-0.30613 0.61226,-0.30613 0,0 -0.46626,-0.16012 -0.61226,-0.30613 -0.146,-0.146 -0.30613,-0.6266 -0.30613,-0.6266 0,0 -0.16013,0.4806 -0.30613,0.6266 z" color="#000" font-family="sans-serif" font-weight="400" overflow="visible" style="line-height:normal;text-indent:0;text-align:start;text-decoration-line:none;text-decoration-style:solid;text-decoration-color:#000;text-transform:none;block-progression:tb;isolation:auto;mix-blend-mode:normal"/></g></svg>