<svg xmlns="http://www.w3.org/2000/svg" width="32" height="32" viewBox="0 0 32 32"><g transform="translate(-215.897 195.333)"><path fill="#1a1a1a" fill-rule="evenodd" d="m 234.90055,-189.47774 c -0.0817,6.79307 0.5438,14.14591 2.02517,19.60672 l -10.01003,0 c 1.48137,-5.46081 2.07514,-12.81365 1.99339,-19.60672 z"/><path fill="#0f1211" fill-rule="evenodd" d="m 234.90055,-187.82908 c -0.0817,6.79307 0.5438,12.49725 2.02517,17.95806 l -10.01003,0 c 6.2647,-1.67863 7.98486,-2.25891 7.98486,-17.95806 z"/><path fill="#0a0a0a" stroke="#000" stroke-linecap="round" d="m 224.52252,-166.83183 c -0.90151,0 -1.62546,0.61482 -1.62546,1.37891 l 0,0.23632 c 0,0.009 0.002,0.0168 0.002,0.0254 l -0.002,0 0,1.35352 1.62546,0 14.74908,0 1.62546,0 0,-1.35352 -0.002,0 c 1.8e-4,-0.009 0.002,-0.0167 0.002,-0.0254 l 0,-0.23632 c 0,-0.76409 -0.72395,-1.37891 -1.62546,-1.37891 l -14.74908,0 z" color="#000" overflow="visible" style="isolation:auto;mix-blend-mode:normal"/><path fill="#0f1211" d="M229.00644-189.33768l5.78125 0 0 1-5.78125 0zM229.00644-185.32285l5.78125 0 0 1-5.78125 0z"/><path fill="none" stroke="#4d4d4d" d="m 228.02183,-169.87102 c 1.48137,-5.46081 1.94803,-12.6646 1.86628,-19.45767" opacity=".42"/><path fill="#2f2f2f" fill-rule="evenodd" d="m 225.99993,-166.34454 2,0 c -0.32973,0.36518 -0.44623,0.71756 -0.4597,1.05901 -0.0132,0.33444 0.0138,0.50105 0.0138,0.94099 l -2.07303,0 c 0,-0.5789 -0.0142,-0.68051 -0.005,-1.02076 0.009,-0.32642 0.18487,-0.65283 0.52402,-0.97924 z"/><rect width="13.832" height="3" x="225.015" y="-169.832" fill="#333" stroke="#000" rx="1.5" ry="1.5"/><path fill="#fff" fill-rule="evenodd" d="M226.98509-169.33183l2 0c-.6419.71094-.58638 1.37377 0 2l-2 0c-.70558-.66667-.69269-1.33333 0-2zM229.7021-169.33183l.71292 0c-.64191.71094-.58638 1.37377 0 2l-.71292 0c-.70559-.66667-.6927-1.33333 0-2z" opacity=".11"/><path fill="#2f2f2f" fill-rule="evenodd" d="m 228.74887,-166.34454 0.77648,0 c -0.32972,0.36518 -0.44622,0.71756 -0.4597,1.05901 -0.0132,0.33444 0.0138,0.50105 0.0138,0.94099 l -0.84951,0 c 0,-0.5789 -0.0142,-0.68051 -0.005,-1.02076 0.009,-0.32642 0.18487,-0.65283 0.52402,-0.97924 z"/><path fill="#0f1211" fill-rule="evenodd" d="m 237.07302,-169.33183 -1.10114,0 c 0.64191,0.71094 0.58639,1.37377 0,2 l 1.10114,0 c 0.70558,-0.66667 0.69269,-1.33333 0,-2 z"/><path fill="#2f2f2f" fill-rule="evenodd" d="m 238.68622,-166.34454 -1.3708,0 c 0.32972,0.36518 0.44623,0.71756 0.4597,1.05901 0.0132,0.33444 -0.0138,0.50105 -0.0138,0.94099 l 1.44383,0 c 0,-0.5789 0.0142,-0.68051 0.005,-1.02076 -0.009,-0.32642 -0.18487,-0.65283 -0.52403,-0.97924 z"/><path fill="#1a1a1a" stroke="#000" stroke-linecap="round" stroke-linejoin="round" d="m 226.89706,-194.82875 2.00671,0 1.9e-4,1.99106 1.9842,0 -1.9e-4,-1.99106 2.03499,0 0,1.99106 2.01843,0 -0.0131,-1.99106 1.98369,0 0,4.99669 -10.01494,0 z"/><path fill="none" stroke="#000" d="m 234.90055,-189.87549 c -0.0907,7.5378 0.5438,14.54366 2.02517,20.00447 l -10.01003,0 c 1.48137,-5.46081 2.0841,-12.46667 1.99339,-20.00447"/><rect width="10" height="2" x="226.897" y="-187.838" fill="#333" stroke="#000" rx="1.13" ry="1"/><path fill="#fff" fill-rule="evenodd" d="m 229.40941,-187.33769 1,0 c -0.32096,0.35547 -0.2932,0.68689 0,1 l -1,0 c -0.3528,-0.33333 -0.34635,-0.66667 0,-1 z" opacity=".11"/><path fill="#ff7a6c" fill-rule="evenodd" stroke="#2f2f2f" d="m 229.89706,-192.33769 0,2"/><path fill="#0f1211" fill-rule="evenodd" d="m 235.13488,-187.33769 -1,0 c 0.32095,0.35547 0.29319,0.68689 0,1 l 1,0 c 0.35279,-0.33333 0.34634,-0.66667 0,-1 z"/><path fill="#fff" fill-rule="evenodd" d="m 228.91795,-187.64269 c -0.146,0.14601 -0.61226,0.30613 -0.61226,0.30613 0,0 0.46865,0.16253 0.61226,0.30613 0.1436,0.14361 0.30613,0.60628 0.30613,0.60628 0,0 0.16252,-0.46267 0.30613,-0.60628 0.1436,-0.1436 0.61226,-0.30613 0.61226,-0.30613 0,0 -0.46626,-0.16012 -0.61226,-0.30613 -0.146,-0.146 -0.30613,-0.6266 -0.30613,-0.6266 0,0 -0.16013,0.4806 -0.30613,0.6266 z" color="#000" font-family="sans-serif" font-weight="400" overflow="visible" style="line-height:normal;text-indent:0;text-align:start;text-decoration-line:none;text-decoration-style:solid;text-decoration-color:#000;text-transform:none;block-progression:tb;isolation:auto;mix-blend-mode:normal"/></g></svg>