<svg xmlns="http://www.w3.org/2000/svg" width="32" height="32" viewBox="0 0 32 32"><g transform="translate(-236.846 235.951)"><path fill="#cdd7e0" fill-rule="evenodd" d="m 249.78311,-228.15287 c -2.4375,-2.76483 0.5625,-4.76483 3.01562,-7.14159 2.54688,2.37676 5.54688,4.37676 3.01563,7.14159"/><path fill="none" stroke="#12141a" stroke-linecap="round" stroke-linejoin="round" d="m 249.5764,-228.59201 c -2.04954,-2.63716 0.84352,-4.58765 3.22233,-6.89241 2.4427,2.27954 5.3022,4.2125 3.29891,6.80607"/><path fill="#e1e7f0" fill-rule="evenodd" d="m 252.74728,-234.9177 c -1.40167,2 -2.85932,4 -2.40167,6 l 1,0 c -0.5359,-2 0.24697,-4 1.40167,-6 z"/><path fill="#cdd7e0" fill-rule="evenodd" d="m 255.8491,-228.59935 c -0.0817,6.79307 0.5438,12.6875 2.02517,18.14832 l -10.01003,0 c 1.48137,-5.46082 2.07514,-11.35525 1.99339,-18.14832 z"/><path fill="#92a3b3" fill-rule="evenodd" d="m 255.8491,-228.40909 c -0.0817,6.79307 0.5438,12.49725 2.02517,17.95806 l -10.01003,0 c 6.2647,-1.67863 7.98486,-2.25891 7.98486,-17.95806 z"/><path fill="#1b1e34" stroke="#12141a" stroke-linecap="round" style="isolation:auto;mix-blend-mode:normal" d="m 245.47107,-207.41185 c -0.90151,0 -1.62546,0.61482 -1.62546,1.37892 l 0,0.23632 c 0,0.009 0.002,0.0168 0.002,0.0254 l -0.002,0 0,1.35352 1.62546,0 14.74908,0 1.62546,0 0,-1.35352 -0.002,0 c 1.8e-4,-0.009 0.002,-0.0167 0.002,-0.0254 l 0,-0.23632 c 0,-0.7641 -0.72395,-1.37892 -1.62546,-1.37892 l -14.74908,0 z" color="#000" overflow="visible"/><path fill="#2e303e" fill-rule="evenodd" d="m 246.94848,-206.92455 2,0 c -0.32973,0.36518 -0.44623,0.71756 -0.4597,1.05901 -0.0132,0.33444 0.0138,0.50105 0.0138,0.94099 l -2.07303,0 c 0,-0.5789 -0.0142,-0.68051 -0.005,-1.02076 0.009,-0.32642 0.18487,-0.65283 0.52402,-0.97924 z"/><rect width="13.832" height="3" x="245.963" y="-210.412" fill="#cdd7e0" stroke="#12141a" rx="1.5" ry="1.5"/><path fill="#fff" fill-rule="evenodd" d="M247.93365-209.91185l2 0c-.64191.71094-.58639 1.37378 0 2l-2 0c-.70559-.66667-.6927-1.33333 0-2zM250.65065-209.91185l.71292 0c-.64191.71094-.58638 1.37378 0 2l-.71292 0c-.70559-.66667-.6927-1.33333 0-2z" opacity=".35"/><path fill="#24273b" fill-rule="evenodd" d="m 249.69742,-206.92455 0.77648,0 c -0.32972,0.36518 -0.44622,0.71756 -0.4597,1.05901 -0.0132,0.33444 0.0138,0.50105 0.0138,0.94099 l -0.84951,0 c 0,-0.5789 -0.0142,-0.68051 -0.005,-1.02076 0.009,-0.32642 0.18487,-0.65283 0.52402,-0.97924 z"/><path fill="#92a3b3" fill-rule="evenodd" d="m 258.02157,-209.91185 -1.10114,0 c 0.64191,0.71094 0.58639,1.37378 0,2 l 1.10114,0 c 0.70558,-0.66667 0.69269,-1.33333 0,-2 z"/><path fill="#16192b" fill-rule="evenodd" d="m 259.63477,-206.92455 -1.3708,0 c 0.32972,0.36518 0.44623,0.71756 0.4597,1.05901 0.0132,0.33444 -0.0138,0.50105 -0.0138,0.94099 l 1.44383,0 c 0,-0.5789 0.0142,-0.68051 0.005,-1.02076 -0.009,-0.32642 -0.18487,-0.65283 -0.52403,-0.97924 z"/><rect width="5.781" height="1" x="249.955" y="-225.903" fill="#92a3b3" rx="0" ry="0"/><path fill="none" stroke="#dce4ea" d="m 248.97039,-210.45103 c 1.48137,-5.46082 1.94802,-11.1399 1.86627,-17.93297" opacity=".6"/><path fill="none" stroke="#12141a" d="m 255.8491,-228.36176 c -0.0907,7.53781 0.5438,12.44991 2.02517,17.91073 l -10.01003,0 c 1.48137,-5.46082 2.0841,-10.37292 1.99339,-17.91073"/><rect width="10" height="2" x="247.846" y="-228.418" fill="#cdd7e0" stroke="#12141a" rx="1.13" ry="1"/><path fill="#fff" fill-rule="evenodd" d="m 250.35796,-227.9177 1,0 c -0.32096,0.35547 -0.2932,0.68689 0,1 l -1,0 c -0.3528,-0.33333 -0.34635,-0.66668 0,-1 z" opacity=".35"/><path fill="#92a3b3" fill-rule="evenodd" d="m 256.08343,-227.9177 -1,0 c 0.32095,0.35547 0.29319,0.68689 0,1 l 1,0 c 0.35279,-0.33333 0.34635,-0.66668 0,-1 z"/><path fill="#fff" fill-rule="evenodd" d="m 249.86123,-228.22271 c -0.146,0.14601 -0.61226,0.30613 -0.61226,0.30613 0,0 0.46865,0.16253 0.61226,0.30613 0.1436,0.14362 0.30613,0.60629 0.30613,0.60629 0,0 0.16252,-0.46267 0.30613,-0.60629 0.1436,-0.1436 0.61226,-0.30613 0.61226,-0.30613 0,0 -0.46626,-0.16012 -0.61226,-0.30613 -0.146,-0.14599 -0.30613,-0.6266 -0.30613,-0.6266 0,0 -0.16013,0.48061 -0.30613,0.6266 z" color="#000" font-family="sans-serif" font-weight="400" overflow="visible" style="line-height:normal;text-indent:0;text-align:start;text-decoration-line:none;text-decoration-style:solid;text-decoration-color:#000;text-transform:none;block-progression:tb;isolation:auto;mix-blend-mode:normal"/></g></svg>