<svg xmlns="http://www.w3.org/2000/svg" width="32" height="32" viewBox="0 0 32 32"><defs><filter id="a" width="1.028" height="1.036" x="-.014" y="-.018" color-interpolation-filters="sRGB"><feGaussianBlur stdDeviation=".015"/></filter><filter id="b" width="1.058" height="1.036" x="-.029" y="-.018" color-interpolation-filters="sRGB"><feGaussianBlur stdDeviation=".015"/></filter></defs><g transform="translate(-278.36 235.918)"><path fill="#92a3b3" d="m 298.36897,-232.88472 c 4.45627,3.93349 6.94131,12.41528 5.5644,19.46697 l -3.04269,0.008"/><path fill="#cdd7e0" fill-rule="evenodd" d="m 295.77638,-233.33537 c -0.88481,1.22886 -2.34352,1.95132 -3.89439,1.93072 -0.58157,1.51344 -2.09637,2.65386 -3.98769,2.99888 -1.42044,0.10701 -2.59634,1.03451 -2.92351,2.30111 -0.32718,1.26659 0.26906,2.58317 1.476,3.25925 1.20695,0.67608 2.74909,0.5573 3.81765,-0.294 l -0.35878,-0.3575 c 2.16537,1.19209 5.16217,0.89224 6.85809,-0.6862 l -0.72162,0.58997 c -0.98474,1.2747 -1.04821,2.31034 -4.65699,3.21914 -3.60877,0.9088 -4.97202,4.81836 -4.2444,7.98616 l 1.7573,-0.005 3.6e-4,2.98326 9.00212,-3e-5 -6.9e-4,-3.0065 2.16126,-0.003 c 2.82958,-6.19743 2.33901,-13.67719 -1.16359,-18.98452"/><path fill="none" stroke="#12141a" stroke-linecap="round" stroke-linejoin="round" d="M288.41223-224.89974a15.76725 11.001381 0 0 1-2.50633 1.48704M293.26125-228.40964l1 0"/><path fill="#92a3b3" fill-rule="evenodd" stroke="#92a3b3" d="m 289.39946,-211.4177 8,0"/><path fill="#92a3b3" fill-rule="evenodd" d="m 294.33554,-212.39285 3.56429,-0.0233 2.16126,-0.003 c 2.82958,-6.19742 2.33901,-13.67718 -1.16359,-18.98451 3.88154,14.48611 -4.56196,19.01097 -4.56196,19.01097 z"/><path fill="none" stroke="#12141a" stroke-linecap="round" stroke-linejoin="round" d="m 298.36897,-232.88472 c 4.45627,3.93349 6.94131,12.41528 5.5644,19.46697 l -3.04269,0.008"/><path fill="#dce4ea" fill-rule="evenodd" d="M297.22779-224.18311l-1.18566.58997c-.98474 1.2747-1.04821 2.31034-4.65699 3.21914-3.60877.9088-4.97202 4.81836-4.2444 7.98616l3.28855-.005c.97017-7.52486 5.97017-5.52486 6.7985-11.79027zM295.77638-233.33537c-.88481 1.22886-2.34352 1.95132-3.89439 1.93072-.58157 1.51344-2.09637 2.65386-3.98769 2.99888-1.42044.10701-2.59634 1.03451-2.92351 2.30111-.14807.57322-.0133 1.61763.43015 2.1942.49369-4.00724 10.99852-4.45355 10.37544-9.42491z"/><path fill="none" stroke="#12141a" stroke-linecap="round" stroke-linejoin="round" d="m 295.77638,-233.33537 c -0.88481,1.22886 -2.34352,1.95132 -3.89439,1.93072 -0.58157,1.51344 -2.09637,2.65386 -3.98769,2.99888 -1.42044,0.10701 -2.59634,1.03451 -2.92351,2.30111 -0.32718,1.26659 0.26906,2.58317 1.476,3.25925 1.20695,0.67608 2.74909,0.5573 3.81765,-0.294 l -0.35878,-0.3575 c 2.16537,1.19209 5.16217,0.89224 6.85809,-0.6862 l -0.72162,0.58997 c -0.98474,1.2747 -1.04821,2.31034 -4.65699,3.21914 -3.60877,0.9088 -4.97202,4.79099 -4.2444,7.95879 l 1.7573,-0.005 3.6e-4,3.01062 9.00212,-4e-5 -6.9e-4,-3.00649 2.16126,-0.003 c 2.82958,-6.19743 2.33901,-13.67719 -1.16359,-18.98453 z"/><path fill="none" stroke="#12141a" d="m 288.39946,-212.4177 10,0"/><path fill="#cdd7e0" d="m 298.74726,-229.41309 c 0.6869,-2.64231 -0.98307,-5.31984 -3.82056,-6.00464 0.30102,0.35481 0.63625,1.04282 0.8247,1.84451 0.18845,0.80169 0.20526,1.61139 0.0448,2.1586"/><path fill="#92a3b3" d="m 298.74726,-229.13184 c 0.6869,-2.64231 -0.98307,-5.60109 -3.82056,-6.28589 0.30102,0.35481 2.98,2.05845 3.35595,5.95389"/><path fill="#dce4ea" d="m 296.03387,-230.99225 c 1.17151,-0.43417 0.99691,-2.50784 -0.52639,-4.03478 0.19271,0.42353 0.48206,1.14971 0.2553,4.10487 z"/><path fill="none" stroke="#12141a" stroke-linecap="round" stroke-linejoin="round" d="m 298.74726,-229.41309 c 0.6869,-2.64231 -0.98307,-5.31984 -3.82056,-6.00464 0.30102,0.35481 0.63625,1.04282 0.8247,1.84451 0.18845,0.80169 0.20526,1.61139 0.0448,2.1586"/><path fill="#1b1e34" stroke="#12141a" stroke-linecap="round" d="m 286.02492,-207.41185 c -0.90151,0 -1.62546,0.61482 -1.62546,1.37891 l 0,0.23632 c 0,0.009 0.002,0.0168 0.002,0.0254 l -0.002,0 0,1.35352 1.62546,0 14.74908,0 1.62546,0 0,-1.35352 -0.002,0 c 1.8e-4,-0.009 0.002,-0.0167 0.002,-0.0254 l 0,-0.23632 c 0,-0.76409 -0.72395,-1.37891 -1.62546,-1.37891 l -14.74908,0 z" color="#000" overflow="visible" style="isolation:auto;mix-blend-mode:normal"/><path fill="#2e303e" fill-rule="evenodd" d="m 287.50233,-206.92456 2,0 c -0.32973,0.36517 -0.44623,0.71757 -0.4597,1.05902 -0.0132,0.33444 0.0138,0.50104 0.0138,0.94098 l -2.07303,0 c 0,-0.57889 -0.0142,-0.6805 -0.005,-1.02076 0.009,-0.32641 0.18487,-0.65282 0.52402,-0.97924 z"/><rect width="13.832" height="3" x="286.517" y="-210.412" fill="#cdd7e0" stroke="#12141a" rx="1.5" ry="1.5"/><path fill="#fff" fill-rule="evenodd" d="m 288.4875,-209.91185 2,0 c -0.64191,0.71094 -0.58639,1.37378 0,2 l -2,0 c -0.70559,-0.66667 -0.6927,-1.33333 0,-2 z" filter="url(#a)" opacity=".35"/><path fill="#fff" fill-rule="evenodd" d="m 291.2045,-209.91185 0.71292,0 c -0.64191,0.71094 -0.58638,1.37378 0,2 l -0.71292,0 c -0.70559,-0.66667 -0.6927,-1.33333 0,-2 z" filter="url(#b)" opacity=".35"/><path fill="#24273b" fill-rule="evenodd" d="m 290.25127,-206.92456 0.77648,0 c -0.32972,0.36517 -0.44622,0.71757 -0.4597,1.05902 -0.0132,0.33444 0.0138,0.50104 0.0138,0.94098 l -0.84951,0 c 0,-0.57889 -0.0142,-0.6805 -0.005,-1.02076 0.009,-0.32641 0.18487,-0.65282 0.52402,-0.97924 z"/><path fill="#92a3b3" fill-rule="evenodd" d="m 298.57542,-209.91185 -1.10114,0 c 0.64191,0.71094 0.58639,1.37378 0,2 l 1.10114,0 c 0.70558,-0.66667 0.69269,-1.33333 0,-2 z"/><path fill="#16192b" fill-rule="evenodd" d="m 300.18862,-206.92456 -1.3708,0 c 0.32972,0.36517 0.44623,0.71757 0.4597,1.05902 0.0132,0.33444 -0.0138,0.50104 -0.0138,0.94098 l 1.44383,0 c 0,-0.57889 0.0142,-0.6805 0.005,-1.02076 -0.009,-0.32641 -0.18487,-0.65282 -0.52403,-0.97924 z"/><path fill="#fff" fill-rule="evenodd" d="m 288.00079,-210.20783 c -0.146,0.14601 -0.61226,0.30613 -0.61226,0.30613 0,0 0.46865,0.16253 0.61226,0.30613 0.1436,0.14362 0.30613,0.60629 0.30613,0.60629 0,0 0.16252,-0.46267 0.30613,-0.60629 0.1436,-0.1436 0.61226,-0.30613 0.61226,-0.30613 0,0 -0.46626,-0.16012 -0.61226,-0.30613 -0.146,-0.14599 -0.30613,-0.62659 -0.30613,-0.62659 0,0 -0.16013,0.4806 -0.30613,0.62659 z" color="#000" font-family="sans-serif" font-weight="400" overflow="visible" style="line-height:normal;text-indent:0;text-align:start;text-decoration-line:none;text-decoration-style:solid;text-decoration-color:#000;text-transform:none;block-progression:tb;isolation:auto;mix-blend-mode:normal"/></g></svg>