<svg xmlns="http://www.w3.org/2000/svg" width="32" height="32" viewBox="0 0 32 32"><g transform="translate(-194.949 235.916)"><rect width="6" height="3.5" x="207.949" y="-233.415" fill="#cdd7e0" stroke="#12141a" rx="1.742" ry="1.75"/><path fill="#cdd7e0" fill-rule="evenodd" d="m 213.95202,-229.50878 c -0.0817,6.79307 0.5438,13.59694 2.02517,19.05775 l -10.01003,0 c 1.48137,-5.46082 2.07514,-12.26468 1.99339,-19.05775 z"/><path fill="#92a3b3" fill-rule="evenodd" d="m 213.95202,-228.40909 c -0.0817,6.79307 0.5438,12.49725 2.02517,17.95806 l -10.01003,0 c 6.2647,-1.67863 7.98486,-2.25891 7.98486,-17.95806 z"/><path fill="#1b1e34" stroke="#12141a" stroke-linecap="round" style="isolation:auto;mix-blend-mode:normal" d="m 203.57399,-207.41185 c -0.90151,0 -1.62546,0.61482 -1.62546,1.37892 l 0,0.23632 c 0,0.009 0.002,0.0168 0.002,0.0254 l -0.002,0 0,1.35352 1.62546,0 14.74908,0 1.62546,0 0,-1.35352 -0.002,0 c 1.8e-4,-0.009 0.002,-0.0167 0.002,-0.0254 l 0,-0.23632 c 0,-0.7641 -0.72395,-1.37892 -1.62546,-1.37892 l -14.74908,0 z" color="#000" overflow="visible"/><rect width="5.629" height="1" x="208.134" y="-223.915" fill="#92a3b3" rx="0" ry="0"/><path fill="none" stroke="#dce4ea" d="m 206.9905,-210.45103 c 1.48137,-5.46082 1.95645,-11.46375 1.86627,-18.95774" opacity=".6"/><path fill="#2e303e" fill-rule="evenodd" d="m 205.0514,-206.92455 2,0 c -0.32973,0.36517 -0.44623,0.71756 -0.4597,1.05901 -0.0132,0.33444 0.0138,0.50104 0.0138,0.94099 l -2.07304,0 c 0,-0.5789 -0.0142,-0.68051 -0.005,-1.02076 0.009,-0.32642 0.18488,-0.65283 0.52403,-0.97924 z"/><rect width="13.832" height="3" x="204.066" y="-210.412" fill="#cdd7e0" stroke="#12141a" rx="1.5" ry="1.5"/><path fill="#fff" fill-rule="evenodd" d="M206.03656-209.91185l2 0c-.6419.71094-.58638 1.37378 0 2l-2 0c-.70558-.66667-.69269-1.33333 0-2zM208.75357-209.91185l.71292 0c-.64191.71094-.58638 1.37378 0 2l-.71292 0c-.70559-.66667-.6927-1.33333 0-2z" opacity=".35"/><path fill="#24273b" fill-rule="evenodd" d="m 207.80034,-206.92455 0.77648,0 c -0.32972,0.36517 -0.44622,0.71756 -0.4597,1.05901 -0.0132,0.33444 0.0138,0.50104 0.0138,0.94099 l -0.84951,0 c 0,-0.5789 -0.0142,-0.68051 -0.005,-1.02076 0.009,-0.32642 0.18487,-0.65283 0.52402,-0.97924 z"/><path fill="#92a3b3" fill-rule="evenodd" d="m 216.12449,-209.91185 -1.10114,0 c 0.64191,0.71094 0.58639,1.37378 0,2 l 1.10114,0 c 0.70558,-0.66667 0.69269,-1.33333 0,-2 z"/><path fill="#16192b" fill-rule="evenodd" d="m 217.73769,-206.92455 -1.3708,0 c 0.32972,0.36517 0.44622,0.71756 0.4597,1.05901 0.0132,0.33444 -0.0138,0.50104 -0.0138,0.94099 l 1.44383,0 c 0,-0.5789 0.0142,-0.68051 0.005,-1.02076 -0.009,-0.32642 -0.18487,-0.65283 -0.52403,-0.97924 z"/><circle cx="210.962" cy="-234.414" r="1.001" fill="#cdd7e0" stroke="#12141a" stroke-linecap="round" stroke-linejoin="round"/><rect width="10" height="2" x="205.949" y="-231.415" fill="#d9e3ed" stroke="#12141a" rx="1.13" ry="1"/><path fill="#fff" fill-rule="evenodd" d="m 208.46088,-230.91478 1,0 c -0.32096,0.35548 -0.2932,0.68689 0,1 l -1,0 c -0.3528,-0.33332 -0.34635,-0.66667 0,-1 z" opacity=".35"/><path fill="none" stroke="#12141a" d="m 213.95202,-229.60877 c 0,7.69399 0.5438,13.69693 2.02517,19.15774 l -10.01003,0 c 1.48137,-5.46082 2.08598,-11.46375 1.99339,-19.15774"/><rect width="10" height="2" x="205.949" y="-226.43" fill="#cdd7e0" stroke="#12141a" rx="1.13" ry="1"/><path fill="#fff" fill-rule="evenodd" d="m 208.46088,-225.9296 1,0 c -0.32096,0.35547 -0.2932,0.68689 0,1 l -1,0 c -0.3528,-0.33333 -0.34635,-0.66667 0,-1 z" opacity=".35"/><path fill="#cdd7e0" fill-rule="evenodd" d="m 206.94853,-229.41478 8,0 c -0.5,0.5 -0.5,2.5 0,3 l -8,0 c 0.5,-0.5 0.5,-2.5 0,-3 z"/><rect width="7" height="1" x="207.449" y="-228.903" fill="#92a3b3" rx="0" ry="0"/><path fill="#dce4ea" fill-rule="evenodd" stroke="#cdd7e0" d="m 208.80208,-226.41478 c 0.5,-0.5 0.5,-2.5 0,-3" opacity=".6"/><path fill="none" stroke="#12141a" d="m 206.94853,-229.41478 8,0 c -0.5,0.5 -0.5,2.5 0,3 l -8,0 c 0.5,-0.5 0.5,-2.5 0,-3 z"/><path fill="#dce4ea" fill-rule="evenodd" d="m 210.44156,-231.91478 -0.97656,0 c 0,-0.37439 0.3077,-1 1.48437,-1 -0.59877,0.16044 -0.50781,0.52578 -0.50781,1 z"/><path fill="#92a3b3" fill-rule="evenodd" d="M214.18635-230.91478l-1 0c.32095.35548.29319.68689 0 1l1 0c.35279-.33332.34634-.66667 0-1zM214.18635-225.9296l-1 0c.32095.35547.29319.68689 0 1l1 0c.35279-.33333.34634-.66667 0-1z"/><path fill="#fff" fill-rule="evenodd" d="m 207.93881,-231.23044 c -0.146,0.14601 -0.61226,0.30613 -0.61226,0.30613 0,0 0.46865,0.16253 0.61226,0.30613 0.1436,0.1436 0.30613,0.60627 0.30613,0.60627 0,0 0.16252,-0.46267 0.30613,-0.60627 0.1436,-0.1436 0.61226,-0.30613 0.61226,-0.30613 0,0 -0.46626,-0.16012 -0.61226,-0.30613 -0.146,-0.146 -0.30613,-0.6266 -0.30613,-0.6266 0,0 -0.16013,0.4806 -0.30613,0.6266 z" color="#000" font-family="sans-serif" font-weight="400" overflow="visible" style="line-height:normal;text-indent:0;text-align:start;text-decoration-line:none;text-decoration-style:solid;text-decoration-color:#000;text-transform:none;block-progression:tb;isolation:auto;mix-blend-mode:normal"/></g></svg>